<svg xmlns="http://www.w3.org/2000/svg" width="22" height="18.782" viewBox="0 0 22 18.782">
  <path id="doante" d="M10.484,5.362l-.516-.58-.18-.2a4.815,4.815,0,0,0-8.413,3.2v.15a4.985,4.985,0,0,0,1.594,3.657l7.9,7.361A.2.2,0,0,0,11,19a.182.182,0,0,0,.129-.052l7.906-7.361a5,5,0,0,0,1.59-3.657v-.15a4.815,4.815,0,0,0-8.413-3.2l-.18.2-.516.58A.69.69,0,0,1,11,5.594a.7.7,0,0,1-.516-.232Zm1.5-2.454A6.193,6.193,0,0,1,22,7.781v.15a6.368,6.368,0,0,1-1.573,4.189c-.146.163-.3.322-.46.473l-7.906,7.361a1.18,1.18,0,0,1-.112.095,1.546,1.546,0,0,1-.95.322,1.581,1.581,0,0,1-1.066-.417L2.028,12.6c-.163-.15-.314-.309-.46-.473A6.405,6.405,0,0,1,0,7.931v-.15A6.19,6.19,0,0,1,10.012,2.908a6.07,6.07,0,0,1,.8.756l.18.2.18-.2a5.882,5.882,0,0,1,.571-.563l.232-.193Z" transform="translate(0 -1.588)" fill="#707070"/>
</svg>
