<svg xmlns="http://www.w3.org/2000/svg" width="22" height="22" viewBox="0 0 22 22">
  <g id="donate" transform="translate(-2088 -4258)">
    <rect id="Rectangle_588" data-name="Rectangle 588" width="22" height="22" transform="translate(2088 4258)" fill="none"/>
    <path id="doante" d="M10.484,5.2l-.516-.556-.18-.194a4.941,4.941,0,0,0-4.46-1.474A4.673,4.673,0,0,0,1.375,7.523v.144a4.687,4.687,0,0,0,1.594,3.5l7.9,7.054a.207.207,0,0,0,.129.049.186.186,0,0,0,.129-.049l7.906-7.054a4.7,4.7,0,0,0,1.59-3.5V7.523a4.673,4.673,0,0,0-3.953-4.542,4.941,4.941,0,0,0-4.46,1.474l-.18.194-.516.556A.7.7,0,0,1,11,5.427a.711.711,0,0,1-.516-.222Zm1.5-2.351a6.421,6.421,0,0,1,4.933-1.169A6.013,6.013,0,0,1,22,7.523v.144a5.957,5.957,0,0,1-1.573,4.015c-.146.156-.3.309-.46.453l-7.906,7.054a1.169,1.169,0,0,1-.112.091,1.59,1.59,0,0,1-.95.309,1.62,1.62,0,0,1-1.066-.4l-7.906-7.05c-.163-.144-.314-.3-.46-.453A5.992,5.992,0,0,1,0,7.667V7.523A6.013,6.013,0,0,1,5.083,1.684a6.4,6.4,0,0,1,4.929,1.169,5.973,5.973,0,0,1,.8.725l.18.194.18-.194a5.772,5.772,0,0,1,.571-.539l.232-.185Z" transform="translate(2088 4258.412)" fill="#707070"/>
  </g>
</svg>
