<svg xmlns="http://www.w3.org/2000/svg" width="89.349" height="75.903" viewBox="0 0 89.349 75.903">
  <g id="logo" transform="translate(-1977.327 -4504)">
    <g id="Group_419" data-name="Group 419">
      <path id="Path_6" data-name="Path 6" d="M39.3,61.806c-1.018,0-2.034-.012-3.021-.036a.044.044,0,0,0-.011-.03.08.08,0,0,0-.056-.015L21.982,61.39c-.9-.023-1.813-.032-2.7-.042A44.179,44.179,0,0,1,8.241,60.3c-3.01-.792-5.058-3.007-6.264-6.772C.924,50.233.647,46.161.4,42.569l-.026-.385a162.851,162.851,0,0,1,.895-31.47A12.97,12.97,0,0,1,3.963,3.84,7.877,7.877,0,0,1,9.509,1.047C17.4.342,25.734,0,35,0c6.2,0,12.96.156,20.658.477a26.3,26.3,0,0,1,4.845.744c7.5,1.694,8.036,10.921,8.509,19.062V20.3q.035.608.071,1.208A148.1,148.1,0,0,1,68.4,47.129c-.342,3.08-.873,6.579-2.218,9.167a7.5,7.5,0,0,1-6.362,4.323C52.253,61.331,45.866,61.806,39.3,61.806Z" transform="translate(1987.327 4510.097)" fill="#ff6e6e"/>
      <path id="Path_7" data-name="Path 7" d="M29.123,45.806c-.753,0-1.506-.009-2.237-.027a.029.029,0,0,0-.008-.022.06.06,0,0,0-.042-.011L16.291,45.5c-.666-.017-1.343-.024-2-.031a32.761,32.761,0,0,1-8.186-.779c-2.23-.587-3.749-2.229-4.642-5.018A36.009,36.009,0,0,1,.3,31.55l-.02-.287A120.772,120.772,0,0,1,.941,7.94a9.609,9.609,0,0,1,2-5.094A5.84,5.84,0,0,1,7.047.776C12.9.254,19.076,0,25.942,0c4.6,0,9.606.116,15.306.354a19.359,19.359,0,0,1,3.59.552C50.4,2.161,50.793,9,51.144,15.029q.027.458.054.91a109.8,109.8,0,0,1-.5,18.989,20.3,20.3,0,0,1-1.644,6.794,5.554,5.554,0,0,1-4.715,3.2C38.725,45.454,33.991,45.806,29.123,45.806Z" transform="translate(1996.304 4504)" fill="#ff6e6e" opacity="0.5"/>
      <path id="Path_3" data-name="Path 3" d="M297.576,621.349l-18.331-.335c-5.935-.117-11.885.116-17.7-1.094-8.852-1.808-9.479-10.675-10.135-18.112a127.054,127.054,0,0,1,1.152-31.47c.963-5.818,4.754-9.289,10.616-9.667,19.789-1.371,39.71-1.209,59.455-.569a42.883,42.883,0,0,1,6.241.744c10.15,1.779,10.4,11.827,11.056,20.285a114.989,114.989,0,0,1-.875,25.622c-1.006,7.027-2.931,12.92-11.056,13.489-10.179.744-20.125,1.343-30.333,1.152C297.664,621.349,297.605,621.349,297.576,621.349Z" transform="translate(1726.405 3958.472)" fill="#ff2121"/>
      <path id="Path_8" data-name="Path 8" d="M9-28,8-26H0v4H28v-4H20l-1-2Zm17,8H2L3.5,4h21Z" transform="translate(2008.001 4561)" fill="#fff"/>
    </g>
  </g>
</svg>
