<svg xmlns="http://www.w3.org/2000/svg" width="22" height="22" viewBox="0 0 22 22">
  <g id="project" transform="translate(-2055 -4258)">
    <rect id="Rectangle_587" data-name="Rectangle 587" width="22" height="22" transform="translate(2055 4258)" fill="none"/>
    <path id="project-2" data-name="project" d="M15.9,2.482H11.554V6.554H18.59l-1.45-3.266A1.352,1.352,0,0,0,15.9,2.482Zm3.121,5.429H2.732v9.5a1.356,1.356,0,0,0,1.357,1.357H17.661a1.356,1.356,0,0,0,1.357-1.357ZM3.16,6.554H10.2V2.482H5.854a1.352,1.352,0,0,0-1.238.806L3.16,6.554ZM15.9,1.125a2.717,2.717,0,0,1,2.481,1.612l1.764,3.97a2.737,2.737,0,0,1,.233,1.1v9.6a2.717,2.717,0,0,1-2.714,2.714H4.089a2.717,2.717,0,0,1-2.714-2.714v-9.6a2.737,2.737,0,0,1,.233-1.1l1.764-3.97A2.717,2.717,0,0,1,5.854,1.125Z" transform="translate(2055.125 4258.375)" fill="#707070"/>
  </g>
</svg>
