<svg xmlns="http://www.w3.org/2000/svg" width="19.25" height="19.25" viewBox="0 0 19.25 19.25">
  <path id="project" d="M16.087,2.5h-4.4V6.625h7.129l-1.47-3.309A1.37,1.37,0,0,0,16.092,2.5ZM19.25,8H2.75v9.625A1.374,1.374,0,0,0,4.125,19h13.75a1.374,1.374,0,0,0,1.375-1.375ZM3.184,6.625h7.129V2.5h-4.4a1.37,1.37,0,0,0-1.255.816L3.184,6.625Zm12.9-5.5A2.752,2.752,0,0,1,18.6,2.758L20.389,6.78A2.773,2.773,0,0,1,20.625,7.9v9.728a2.753,2.753,0,0,1-2.75,2.75H4.125a2.753,2.753,0,0,1-2.75-2.75V7.9A2.773,2.773,0,0,1,1.611,6.78L3.4,2.758A2.752,2.752,0,0,1,5.912,1.125Z" transform="translate(-1.375 -1.125)" fill="#707070"/>
</svg>
