<svg xmlns="http://www.w3.org/2000/svg" width="22" height="22.002" viewBox="0 0 22 22.002">
  <path id="report" d="M11,1.125a2.753,2.753,0,0,0-2.75,2.75h5.5A2.753,2.753,0,0,0,11,1.125ZM6.875,3.875a4.125,4.125,0,0,1,8.25,0V4.03A1.219,1.219,0,0,1,13.9,5.25H8.1a1.219,1.219,0,0,1-1.22-1.22Zm-5.3.2a.69.69,0,0,1,.971,0L5.955,7.484a4.445,4.445,0,0,1,2.638-.859h4.813a4.454,4.454,0,0,1,2.638.859l3.407-3.407a.687.687,0,1,1,.971.971L17.016,8.455a4.445,4.445,0,0,1,.859,2.638v.344h3.438a.688.688,0,0,1,0,1.375H17.875V13.5a6.853,6.853,0,0,1-.984,3.545l3.532,3.532a.687.687,0,0,1-.971.971l-3.395-3.395a6.872,6.872,0,0,1-10.115,0L2.548,21.552a.687.687,0,0,1-.971-.971l3.532-3.532A6.88,6.88,0,0,1,4.125,13.5v-.687H.688a.688.688,0,0,1,0-1.375H4.125v-.344a4.454,4.454,0,0,1,.859-2.638L1.577,5.048a.69.69,0,0,1,0-.971ZM5.5,13.5a5.5,5.5,0,0,0,4.813,5.457V10.75a.687.687,0,1,1,1.375,0v8.207A5.5,5.5,0,0,0,16.5,13.5V11.094A3.092,3.092,0,0,0,13.406,8H8.594A3.092,3.092,0,0,0,5.5,11.094V13.5Z" transform="translate(0 0.25)" fill="#707070"/>
</svg>
